<?xml version="1.0" standalone="no"?>
<!DOCTYPE svg PUBLIC "-//W3C//DTD SVG 20010904//EN"
 "http://www.w3.org/TR/2001/REC-SVG-20010904/DTD/svg10.dtd">
<svg version="1.0" xmlns="http://www.w3.org/2000/svg"
 width="400.000000pt" height="400.000000pt" viewBox="0 0 400.000000 400.000000"
 preserveAspectRatio="xMidYMid meet">
<metadata>
Created by potrace 1.11, written by Peter Selinger 2001-2013
</metadata>
<g transform="translate(0.000000,400.000000) scale(0.100000,-0.100000)"
fill="#000000" stroke="none">
<path d="M0 2000 l0 -2000 2000 0 2000 0 0 2000 0 2000 -2000 0 -2000 0 0
-2000z m2293 1537 c14 -29 28 -63 32 -77 3 -14 15 -43 25 -65 17 -37 26 -60
82 -200 11 -27 29 -68 39 -91 11 -23 19 -47 19 -55 0 -8 9 -29 20 -47 11 -18
20 -40 20 -50 0 -9 9 -30 20 -47 11 -16 20 -37 20 -45 0 -8 9 -32 20 -53 11
-20 20 -45 20 -54 0 -10 9 -31 20 -48 11 -16 20 -37 20 -45 0 -8 9 -32 20 -53
11 -20 20 -45 20 -54 0 -10 9 -31 20 -48 11 -16 20 -37 20 -45 0 -8 12 -37 25
-65 14 -27 25 -56 25 -63 0 -6 9 -29 20 -49 11 -21 20 -42 20 -48 0 -6 9 -28
20 -50 11 -22 20 -46 20 -55 0 -8 7 -24 15 -34 8 -11 15 -27 15 -35 0 -9 11
-37 25 -63 14 -26 25 -55 25 -65 0 -10 9 -31 20 -48 11 -16 20 -39 20 -50 0
-11 9 -33 20 -50 11 -16 20 -38 20 -48 0 -10 9 -35 19 -55 11 -20 29 -62 41
-92 12 -30 30 -73 41 -95 10 -22 19 -47 19 -55 0 -8 9 -30 20 -48 11 -18 20
-40 20 -50 0 -9 9 -32 20 -50 11 -18 20 -38 20 -45 0 -6 11 -34 25 -62 13 -27
25 -57 25 -65 0 -8 7 -24 15 -34 8 -11 15 -27 15 -35 0 -9 11 -38 25 -66 13
-27 25 -58 25 -67 0 -9 4 -20 10 -23 5 -3 17 -30 25 -60 9 -29 22 -59 30 -65
23 -19 155 -51 235 -57 41 -3 81 -10 88 -15 8 -7 12 -47 12 -134 l0 -124 -757
0 c-417 0 -767 -3 -779 -6 -28 -7 -51 17 -65 69 -17 63 -14 89 12 108 13 10
36 27 51 39 14 11 33 20 41 20 8 0 20 7 27 16 8 8 27 22 44 30 56 26 159 83
169 93 6 6 2 22 -12 44 -11 19 -21 41 -21 48 0 8 -9 31 -20 52 -11 20 -20 47
-20 59 0 13 -9 37 -20 53 -11 17 -20 40 -20 53 0 31 -25 78 -45 86 -23 9 -958
7 -971 -2 -6 -4 -14 -23 -18 -43 -3 -19 -15 -53 -26 -74 -11 -22 -20 -45 -20
-53 0 -8 -6 -26 -14 -40 -7 -15 -23 -54 -35 -87 -13 -33 -29 -76 -38 -95 -13
-31 -13 -35 3 -47 10 -7 37 -13 60 -13 23 0 71 -9 106 -20 34 -11 86 -20 115
-20 78 0 83 -9 83 -145 0 -63 -4 -117 -10 -120 -8 -5 -282 -6 -1280 -5 -24 0
-27 5 -38 71 -15 88 -8 103 71 143 31 15 61 34 68 42 6 8 19 14 29 14 9 0 25
9 35 20 10 11 26 20 35 20 10 0 29 9 43 20 14 11 33 20 44 20 10 0 23 4 29 8
13 9 64 116 64 134 0 8 7 23 15 34 8 10 15 26 15 34 0 8 12 38 25 65 14 28 25
55 25 60 0 6 9 28 20 50 11 22 20 47 20 56 0 9 6 22 14 28 8 7 18 27 21 44 4
18 15 50 25 72 10 22 27 63 38 90 37 93 64 160 83 201 11 23 19 47 19 55 0 8
9 28 20 44 11 17 20 39 20 50 0 11 9 34 20 50 11 17 20 36 20 44 0 8 9 32 19
55 36 78 71 164 71 174 0 6 6 23 14 39 28 54 66 151 66 166 0 8 6 20 14 26 8
7 18 27 22 44 4 18 15 48 25 67 11 19 19 42 19 50 0 8 9 29 20 45 11 17 20 38
20 47 0 18 26 82 61 150 10 20 19 44 19 52 0 9 9 30 20 48 11 18 20 43 20 54
0 12 9 33 20 47 11 14 20 33 20 42 0 10 8 34 19 54 47 92 57 143 37 185 -9 19
-16 42 -16 51 0 9 -10 30 -21 47 -12 16 -18 33 -13 37 22 19 116 51 149 51 20
0 53 9 75 20 22 11 56 20 77 20 21 0 52 7 68 16 17 9 59 20 93 25 35 5 73 16
85 24 12 8 35 15 52 15 46 0 102 19 109 36 9 24 29 4 59 -59z"/>
<path d="M1838 2463 c-6 -16 -19 -46 -30 -69 -10 -22 -18 -44 -18 -49 0 -12
-38 -111 -55 -145 -7 -14 -16 -41 -20 -60 -4 -19 -11 -40 -16 -46 -5 -6 -18
-35 -28 -65 -10 -30 -24 -70 -31 -89 -7 -19 -21 -52 -31 -72 -10 -20 -19 -45
-19 -55 0 -10 -7 -31 -15 -46 -23 -45 -46 -130 -37 -139 5 -5 148 -7 318 -6
l309 3 3 38 c2 25 -2 45 -12 56 -9 10 -19 33 -22 52 -4 19 -13 45 -20 59 -8
14 -20 43 -28 65 -8 22 -19 56 -26 75 -7 19 -21 54 -31 78 -11 23 -19 49 -19
57 0 8 -9 32 -20 52 -11 21 -20 47 -20 58 0 11 -9 35 -20 53 -11 18 -20 40
-20 50 0 9 -9 34 -20 55 -11 20 -20 48 -20 61 0 59 -32 76 -52 29z"/>
</g>
</svg>
